<?xml version="1.0" encoding="utf-8"?>
<svg viewBox="32.71 49.7056 453.925 149.7887"
     xmlns="http://www.w3.org/2000/svg">
  <defs>
    <linearGradient id="logo-gradient" x1="-25%" y1="-25%" x2="150%" y2="150%"
                    gradientTransform="rotate(315deg)">
      <stop class="logo-gradient__start" offset="0" stop-color="#ac1b55"/>
      <stop class="logo-gradient__end" offset="1" stop-color="#ffc013"/>
    </linearGradient>
  </defs>
  <path fill="url(#logo-gradient)"
        d="M510.58 250.69c-17.922-30.966-46.627-54.864-79.996-67.02 15.006-32.188 18.407-69.373 9.179-103.93a10.59 10.59 0 0 0-7.501-7.501c-34.556-9.23-71.742-5.828-103.93 9.177-12.156-33.368-36.053-62.073-67.021-79.995a10.596 10.596 0 0 0-10.612 0c-30.967 17.922-54.864 46.627-67.021 79.995-32.189-15.006-69.376-18.406-103.93-9.177a10.592 10.592 0 0 0-7.501 7.501c-9.229 34.557-5.827 71.743 9.179 103.93-33.369 12.156-62.074 36.053-79.996 67.02a10.598 10.598 0 0 0 0 10.613c17.922 30.966 46.627 54.864 79.996 67.02-15.006 32.188-18.407 69.373-9.179 103.93a10.59 10.59 0 0 0 7.501 7.501c12.828 3.426 26.013 5.113 39.176 5.113 22.297-.001 44.511-4.862 64.752-14.297 12.155 33.371 36.054 62.079 67.024 80.002a10.593 10.593 0 0 0 10.612 0c30.97-17.923 54.868-46.631 67.024-80.002 20.241 9.436 42.452 14.297 64.752 14.297 13.162 0 26.351-1.687 39.176-5.113a10.592 10.592 0 0 0 7.501-7.501c9.229-34.556 5.827-71.742-9.179-103.93 33.369-12.156 62.074-36.053 79.996-67.02a10.598 10.598 0 0 0 0-10.613zM420.753 91.25c6.04 27.958 2.712 57.485-9.277 83.287-17.57-10.497-37.91-16.01-58.277-15.735.252-20.393-5.246-40.715-15.736-58.277 25.802-11.988 55.33-15.316 83.29-9.275zm-72.957 202.76c11.851-5.115 22.381-13.119 30.516-23.178 12.9 12.438 21.891 28.743 25.531 46.399-15.045 9.908-32.931 15.075-50.857 14.746 1.359-12.866-.428-25.972-5.19-37.967zm-55.888-58.16a60.32 60.32 0 0 1 24.594-5.24c5.293 0 10.551.689 15.626 2.048l.051.015c13.455 3.608 25.396 11.976 33.492 23.319-8.104 11.36-20.062 19.738-33.543 23.342a60.398 60.398 0 0 1-15.626 2.048 60.321 60.321 0 0 1-24.559-5.218 40.828 40.828 0 0 0 5.287-20.126 40.836 40.836 0 0 0-5.322-20.188zm55.889-17.87c4.763-11.998 6.55-25.104 5.191-37.971 17.922-.327 35.806 4.839 50.857 14.744-3.64 17.656-12.632 33.961-25.531 46.4-8.137-10.057-18.668-18.06-30.517-23.173zm-18.408-5.392a79.523 79.523 0 0 0-31.019 1.049 79.612 79.612 0 0 0 2.095-18.143c0-4.347-.351-8.659-1.041-12.882a60.93 60.93 0 0 1 34.131-4.166 60.994 60.994 0 0 1-4.166 34.142zm2.602-53.576c-12.86-1.36-25.963.428-37.962 5.194-5.113-11.854-13.118-22.386-23.183-30.524 12.437-12.898 28.742-21.889 46.399-25.529 9.907 15.052 15.075 32.937 14.746 50.859zm-75.854 138.12a40.82 40.82 0 0 0 20.026-5.23 60.316 60.316 0 0 1 5.232 24.589c0 5.298-.689 10.555-2.049 15.631-3.602 13.476-11.98 25.435-23.341 33.539-11.363-8.11-19.738-20.073-23.334-33.558a60.26 60.26 0 0 1-2.048-15.611 60.422 60.422 0 0 1 5.283-24.707 40.828 40.828 0 0 0 20.231 5.347zm-19.906-41.092c0-10.976 8.93-19.906 19.906-19.906s19.906 8.93 19.906 19.906-8.93 19.906-19.906 19.906-19.906-8.929-19.906-19.906zm39.903-35.879a40.819 40.819 0 0 0-19.996-5.212 40.823 40.823 0 0 0-20.198 5.328 60.36 60.36 0 0 1-5.316-24.776c0-5.298.689-10.55 2.052-15.626 3.592-13.474 11.967-25.435 23.331-33.545 11.365 8.108 19.745 20.072 23.347 33.573 1.355 5.016 2.042 10.264 2.042 15.596a60.31 60.31 0 0 1-5.262 24.662zm-20.129-197.16c24.043 15.507 42.577 38.743 52.354 65.459-19.846 4.999-38.111 15.479-52.354 30.072-14.242-14.593-32.509-25.074-52.355-30.072 9.777-26.716 28.312-49.95 52.355-65.459zm-61.248 85.155c17.661 3.639 33.968 12.631 46.409 25.533-10.063 8.14-18.066 18.673-23.175 30.521-12.008-4.769-25.12-6.556-37.988-5.191-.378-18.051 4.774-35.765 14.754-50.863zm25.52 167.92a60.293 60.293 0 0 1-24.768 5.312 59.926 59.926 0 0 1-15.625-2.051c-13.475-3.594-25.437-11.972-33.544-23.339 8.099-11.347 20.042-19.716 33.505-23.319l.051-.015a60.38 60.38 0 0 1 15.612-2.048c8.587 0 17.055 1.83 24.808 5.329a40.837 40.837 0 0 0-5.271 20.099 40.83 40.83 0 0 0 5.232 20.032zm-61.249 55.911c-17.922.329-35.81-4.837-50.861-14.743 3.636-17.648 12.628-33.954 25.531-46.4 8.14 10.066 18.673 18.072 30.519 23.18-4.764 11.993-6.55 25.097-5.189 37.963zm5.191-114c-11.851 5.111-22.382 13.113-30.52 23.173-12.904-12.448-21.897-28.755-25.531-46.404 15.147-10.021 32.777-15.143 50.863-14.759-1.368 12.874.418 25.987 5.188 37.99zm14.244-39.529a60.932 60.932 0 0 1 34.141 4.168 79.661 79.661 0 0 0 1.049 31.025 79.515 79.515 0 0 0-31.026-1.052 60.894 60.894 0 0 1-4.164-34.141zM91.257 91.256c27.955-6.04 57.475-2.713 83.274 9.27-10.563 17.584-16.041 37.735-15.736 58.259-20.51-.316-40.623 5.13-58.268 15.743-11.982-25.799-15.309-55.321-9.27-83.272zm-68.246 164.75c15.507-24.044 38.743-42.578 65.46-52.354 4.997 19.839 15.478 38.104 30.077 52.354-14.598 14.25-25.079 32.515-30.077 52.354-26.717-9.777-49.954-28.312-65.46-52.354zm68.246 164.75c-6.04-27.957-2.712-57.485 9.276-83.287 17.563 10.496 37.889 16.007 58.277 15.735-.252 20.393 5.246 40.715 15.736 58.277-25.801 11.987-55.329 15.315-83.289 9.275zm91.37-121.34a79.72 79.72 0 0 0 12.881 1.044c6.139 0 12.23-.713 18.148-2.101a79.505 79.505 0 0 0-1.053 31.02 60.951 60.951 0 0 1-34.14 4.172 60.907 60.907 0 0 1 4.164-34.135zm-2.608 53.569c2.792.296 5.596.45 8.398.45a80.218 80.218 0 0 0 29.572-5.65c5.11 11.852 13.112 22.385 23.173 30.524-12.454 12.911-28.76 21.905-46.398 25.536-9.906-15.051-15.074-32.937-14.745-50.86zm75.986 136.02c-24.042-15.506-42.576-38.742-52.352-65.457 19.831-4.995 38.096-15.475 52.352-30.081 14.256 14.606 32.521 25.087 52.354 30.081-9.777 26.716-28.312 49.949-52.354 65.457zm61.238-85.155c-17.637-3.632-33.94-12.625-46.394-25.534 10.06-8.136 18.065-18.668 23.18-30.52a80.28 80.28 0 0 0 29.57 5.645c2.8 0 5.602-.155 8.393-.449.328 17.929-4.841 35.813-14.749 50.858zm16.31-70.293a60.985 60.985 0 0 1-34.136-4.165 79.647 79.647 0 0 0-1.046-31.019 79.634 79.634 0 0 0 31.018 1.046 61.004 61.004 0 0 1 4.164 34.138zm87.2 87.2c-27.961 6.041-57.487 2.713-83.29-9.276 10.491-17.556 15.989-37.877 15.736-58.276 20.387.254 40.717-5.247 58.276-15.737 11.99 25.803 15.318 55.332 9.278 83.289zm2.787-112.39c-5-19.846-15.479-38.112-30.073-52.355 14.594-14.241 25.072-32.507 30.072-52.352 26.717 9.776 49.952 28.31 65.459 52.352-15.507 24.044-38.74 42.579-65.458 52.355z"
        transform="matrix(0.29255610704421997, 0, 0, 0.29255610704421997, 32.708274841308594, 49.706512451171875)"/>
  <path fill="url(#logo-gradient)"
        d="M 211.526 153.353 L 211.526 89.633 L 258.596 89.633 L 258.596 104.753 L 227.816 104.753 L 227.816 116.363 L 253.196 116.363 L 253.196 131.303 L 227.816 131.303 L 227.816 153.353 Z M 285.218 154.073 Q 278.198 154.073 272.573 151.283 Q 266.948 148.493 263.618 143.048 Q 260.288 137.603 260.288 129.773 Q 260.288 121.763 263.663 116.228 Q 267.038 110.693 272.618 107.813 Q 278.198 104.933 284.948 104.933 Q 291.878 104.933 297.413 107.903 Q 302.948 110.873 306.233 116.453 Q 309.518 122.033 309.518 130.043 Q 309.518 137.783 306.368 143.183 Q 303.218 148.583 297.728 151.328 Q 292.238 154.073 285.218 154.073 Z M 284.948 139.313 Q 288.368 139.313 290.348 137.873 Q 292.328 136.433 293.138 134.228 Q 293.948 132.023 293.948 129.863 Q 293.948 127.703 293.138 125.363 Q 292.328 123.023 290.393 121.403 Q 288.458 119.783 284.948 119.783 Q 281.528 119.783 279.503 121.403 Q 277.478 123.023 276.668 125.318 Q 275.858 127.613 275.858 129.863 Q 275.858 132.113 276.713 134.318 Q 277.568 136.523 279.548 137.918 Q 281.528 139.313 284.948 139.313 Z M 335.609 154.073 Q 332.099 154.073 328.499 153.263 Q 324.899 152.453 321.794 150.563 Q 318.689 148.673 316.529 145.388 Q 314.369 142.103 313.649 137.153 L 329.759 137.153 Q 330.119 138.323 331.064 139.223 Q 332.009 140.123 333.404 140.618 Q 334.799 141.113 336.419 141.113 Q 337.499 141.113 338.354 140.933 Q 339.209 140.753 339.839 140.348 Q 340.469 139.943 340.784 139.403 Q 341.099 138.863 341.099 138.233 Q 341.099 136.973 340.109 136.388 Q 339.119 135.803 337.409 135.488 Q 335.699 135.173 333.539 134.723 Q 330.209 134.003 326.384 132.878 Q 322.559 131.753 319.949 130.043 Q 318.599 129.143 317.654 128.018 Q 316.709 126.893 316.124 125.543 Q 315.539 124.193 315.269 122.753 Q 314.999 121.313 314.999 119.693 Q 314.999 115.553 316.844 112.718 Q 318.689 109.883 321.614 108.173 Q 324.539 106.463 328.094 105.698 Q 331.649 104.933 335.069 104.933 Q 340.109 104.933 344.474 106.553 Q 348.839 108.173 351.764 111.773 Q 354.689 115.373 355.409 121.313 L 340.019 121.313 Q 339.839 119.693 338.264 118.793 Q 336.689 117.893 334.439 117.893 Q 333.539 117.893 332.774 118.073 Q 332.009 118.253 331.424 118.523 Q 330.839 118.793 330.524 119.243 Q 330.209 119.693 330.209 120.233 Q 330.209 120.593 330.434 121.043 Q 330.659 121.493 331.289 121.898 Q 331.919 122.303 332.999 122.663 Q 335.969 123.383 338.624 123.923 Q 341.279 124.463 343.979 125.003 Q 346.949 125.543 349.829 126.848 Q 352.709 128.153 354.644 130.763 Q 356.579 133.373 356.579 138.053 Q 356.579 142.643 354.689 145.748 Q 352.799 148.853 349.694 150.653 Q 346.589 152.453 342.899 153.263 Q 339.209 154.073 335.609 154.073 Z M 385.291 154.073 Q 378.091 154.073 372.781 151.193 Q 367.471 148.313 364.546 142.868 Q 361.621 137.423 361.621 129.773 Q 361.621 121.853 364.636 116.318 Q 367.651 110.783 373.051 107.858 Q 378.451 104.933 385.561 104.933 Q 391.951 104.933 396.901 107.273 Q 401.851 109.613 404.731 114.023 Q 407.611 118.433 407.791 124.823 L 392.491 124.823 Q 391.951 122.213 390.106 120.863 Q 388.261 119.513 385.651 119.513 Q 382.411 119.513 380.611 121.178 Q 378.811 122.843 378.091 125.228 Q 377.371 127.613 377.371 129.773 Q 377.371 132.203 378.181 134.453 Q 378.991 136.703 380.791 138.143 Q 382.591 139.583 385.561 139.583 Q 388.441 139.583 390.241 138.188 Q 392.041 136.793 392.491 134.363 L 408.331 134.363 Q 408.151 140.843 405.001 145.208 Q 401.851 149.573 396.721 151.823 Q 391.591 154.073 385.291 154.073 Z M 414.533 153.353 L 414.533 105.923 L 430.463 105.923 L 430.463 153.353 Z M 422.543 102.683 Q 418.223 102.683 415.568 100.118 Q 412.913 97.553 412.913 93.413 Q 412.913 89.183 415.703 86.483 Q 418.493 83.783 422.633 83.783 Q 426.593 83.783 429.383 86.348 Q 432.173 88.913 432.173 93.323 Q 432.173 97.553 429.518 100.118 Q 426.863 102.683 422.543 102.683 Z M 453.943 154.073 Q 450.613 154.073 447.643 153.173 Q 444.673 152.273 442.378 150.473 Q 440.083 148.673 438.733 145.973 Q 437.383 143.273 437.383 139.583 Q 437.383 134.183 439.678 131.123 Q 441.973 128.063 445.888 126.623 Q 449.803 125.183 454.798 124.778 Q 459.793 124.373 465.193 124.373 L 467.353 124.373 Q 467.353 122.663 466.543 121.313 Q 465.733 119.963 464.248 119.153 Q 462.763 118.343 460.603 118.343 Q 459.073 118.343 457.633 118.793 Q 456.193 119.243 455.248 120.008 Q 454.303 120.773 454.123 121.853 L 438.283 121.853 Q 438.823 117.443 440.893 114.248 Q 442.963 111.053 446.113 109.028 Q 449.263 107.003 453.178 106.013 Q 457.093 105.023 461.323 105.023 Q 471.763 105.023 477.118 110.828 Q 482.473 116.633 482.473 127.883 L 482.473 153.353 L 467.803 153.353 L 467.803 147.143 Q 465.463 150.653 462.538 152.093 Q 459.613 153.533 457.228 153.803 Q 454.843 154.073 453.943 154.073 Z M 458.263 141.923 Q 460.513 141.923 462.628 140.798 Q 464.743 139.673 466.138 137.963 Q 467.533 136.253 467.533 134.543 L 467.533 134.183 L 458.623 134.183 Q 457.543 134.183 456.553 134.408 Q 455.563 134.633 454.798 135.083 Q 454.033 135.533 453.583 136.253 Q 453.133 136.973 453.133 138.053 Q 453.133 139.313 453.808 140.168 Q 454.483 141.023 455.653 141.473 Q 456.823 141.923 458.263 141.923 Z"
        transform="matrix(1, 0, 0, 1, 0, 3.552713678800501e-15)"/>
  <path fill="url(#logo-gradient)"
        d="M 216.357 176.633 L 216.357 183.387 L 211.558 183.387 L 211.558 163.481 L 219.501 163.481 Q 221.784 163.481 223.541 164.322 Q 225.298 165.162 226.262 166.714 Q 227.226 168.266 227.226 170.235 Q 227.226 173.147 225.141 174.89 Q 223.056 176.633 219.419 176.633 Z M 216.357 172.928 L 219.501 172.928 Q 220.896 172.928 221.627 172.231 Q 222.359 171.533 222.359 170.262 Q 222.359 168.867 221.607 168.033 Q 220.855 167.199 219.556 167.186 L 216.357 167.186 Z M 241.576 179.696 L 249.929 179.696 L 249.929 183.387 L 236.777 183.387 L 236.777 163.481 L 241.576 163.481 Z M 270.517 179.668 L 263.941 179.668 L 262.792 183.387 L 257.665 183.387 L 264.966 163.481 L 269.478 163.481 L 276.833 183.387 L 271.679 183.387 Z M 265.089 175.963 L 269.368 175.963 L 267.222 169.059 Z M 290.519 172.121 L 294.183 163.481 L 299.365 163.481 L 292.953 176.237 L 292.953 183.387 L 288.086 183.387 L 288.086 176.237 L 281.687 163.481 L 286.841 163.481 Z M 323.711 180.926 Q 322.604 182.157 320.471 182.908 Q 318.338 183.66 315.795 183.66 Q 311.885 183.66 309.547 181.268 Q 307.209 178.875 307.045 174.61 L 307.031 172.887 Q 307.031 169.948 308.07 167.753 Q 309.109 165.559 311.044 164.376 Q 312.979 163.194 315.522 163.194 Q 319.24 163.194 321.298 164.896 Q 323.356 166.598 323.697 169.975 L 319.076 169.975 Q 318.83 168.307 318.01 167.596 Q 317.19 166.885 315.686 166.885 Q 313.881 166.885 312.897 168.416 Q 311.912 169.948 311.899 172.791 L 311.899 173.994 Q 311.899 176.975 312.917 178.472 Q 313.936 179.969 316.123 179.969 Q 317.996 179.969 318.912 179.135 L 318.912 176.045 L 315.576 176.045 L 315.576 172.75 L 323.711 172.75 Z M 340.894 176.36 L 338.297 176.36 L 338.297 183.387 L 333.498 183.387 L 333.498 163.481 L 341.332 163.481 Q 344.873 163.481 346.869 165.053 Q 348.865 166.625 348.865 169.496 Q 348.865 171.574 348.024 172.942 Q 347.183 174.309 345.392 175.157 L 349.549 183.182 L 349.549 183.387 L 344.408 183.387 Z M 338.297 172.655 L 341.332 172.655 Q 342.699 172.655 343.389 171.937 Q 344.08 171.219 344.08 169.934 Q 344.08 168.649 343.383 167.917 Q 342.685 167.186 341.332 167.186 L 338.297 167.186 Z M 375.621 173.844 Q 375.621 176.756 374.541 178.998 Q 373.461 181.241 371.472 182.45 Q 369.482 183.66 366.939 183.66 Q 364.396 183.66 362.428 182.491 Q 360.459 181.323 359.358 179.149 Q 358.258 176.975 358.203 174.158 L 358.203 173.037 Q 358.203 170.112 359.276 167.876 Q 360.35 165.641 362.353 164.424 Q 364.355 163.207 366.912 163.207 Q 369.441 163.207 371.424 164.41 Q 373.406 165.614 374.507 167.835 Q 375.607 170.057 375.621 172.928 Z M 370.74 173.01 Q 370.74 170.043 369.749 168.505 Q 368.758 166.967 366.912 166.967 Q 363.303 166.967 363.098 172.381 L 363.084 173.844 Q 363.084 176.77 364.055 178.342 Q 365.025 179.914 366.939 179.914 Q 368.758 179.914 369.742 178.369 Q 370.727 176.824 370.74 173.926 Z M 400.707 163.481 L 400.707 176.51 Q 400.707 178.725 399.764 180.345 Q 398.82 181.965 397.057 182.813 Q 395.293 183.66 392.887 183.66 Q 389.25 183.66 387.158 181.774 Q 385.066 179.887 385.025 176.606 L 385.025 163.481 L 389.852 163.481 L 389.852 176.701 Q 389.934 179.969 392.887 179.969 Q 394.377 179.969 395.143 179.149 Q 395.908 178.328 395.908 176.483 L 395.908 163.481 Z M 427.321 183.387 L 422.55 183.387 L 415.495 171 L 415.495 183.387 L 410.696 183.387 L 410.696 163.481 L 415.495 163.481 L 422.536 175.867 L 422.536 163.481 L 427.321 163.481 Z M 437.355 183.387 L 437.355 163.481 L 443.767 163.481 Q 446.406 163.481 448.511 164.677 Q 450.616 165.873 451.799 168.054 Q 452.982 170.235 452.995 172.942 L 452.995 173.858 Q 452.995 176.592 451.84 178.759 Q 450.685 180.926 448.586 182.15 Q 446.488 183.373 443.904 183.387 Z M 442.154 167.186 L 442.154 179.696 L 443.822 179.696 Q 445.886 179.696 446.993 178.226 Q 448.101 176.756 448.101 173.858 L 448.101 172.996 Q 448.101 170.112 446.993 168.649 Q 445.886 167.186 443.767 167.186 Z"
        transform="matrix(1.1159290075302124, 0, 0, 1, -24.61642837524414, 3.552713678800501e-15)"/>
</svg>
