<?xml version="1.0" encoding="utf-8"?>
<svg viewBox="0 80 500 340" xmlns="http://www.w3.org/2000/svg" class="foscia-schema">
  <linearGradient id="gradient" x1="0" y1="0" x2="100%" y2="100%"
                  gradientTransform="rotate(0)">
    <stop class="svg-gradient-primary__start" stop-color="#ac1b55" offset="0"/>
    <stop class="svg-gradient-primary__end" stop-color="#ffc107" offset="100%"/>
  </linearGradient>
  <path
    d="M 324.581 161.875 C 319.331 152.803 310.921 145.803 301.145 142.241 C 305.542 132.812 306.538 121.917 303.835 111.794 C 303.548 110.72 302.71 109.881 301.637 109.596 C 291.512 106.892 280.619 107.889 271.189 112.284 C 267.628 102.509 260.626 94.098 251.554 88.848 C 250.592 88.292 249.406 88.292 248.444 88.848 C 239.372 94.098 232.372 102.509 228.809 112.284 C 219.379 107.888 208.485 106.892 198.361 109.596 C 197.289 109.881 196.45 110.72 196.164 111.794 C 193.461 121.917 194.458 132.812 198.853 142.241 C 189.078 145.803 180.667 152.803 175.417 161.875 C 174.861 162.837 174.861 164.023 175.417 164.985 C 180.667 174.057 189.078 181.059 198.853 184.62 C 194.458 194.05 193.461 204.943 196.164 215.068 C 196.45 216.141 197.289 216.979 198.361 217.266 C 202.12 218.269 205.983 218.763 209.839 218.763 C 216.372 218.763 222.879 217.339 228.809 214.575 C 232.37 224.352 239.372 232.762 248.444 238.012 C 249.407 238.57 250.592 238.57 251.554 238.012 C 260.627 232.762 267.628 224.352 271.19 214.575 C 277.12 217.339 283.627 218.763 290.161 218.763 C 294.016 218.763 297.88 218.269 301.637 217.266 C 302.711 216.979 303.548 216.141 303.835 215.068 C 306.539 204.943 305.542 194.05 301.145 184.62 C 310.921 181.059 319.331 174.057 324.581 164.985 C 325.139 164.023 325.139 162.837 324.581 161.875 Z M 298.265 115.166 C 300.035 123.356 299.059 132.006 295.547 139.566 C 290.399 136.49 284.441 134.876 278.474 134.957 C 278.548 128.981 276.937 123.027 273.863 117.882 C 281.423 114.371 290.074 113.396 298.265 115.166 Z M 276.89 174.567 C 280.363 173.068 283.448 170.724 285.83 167.776 C 289.61 171.42 292.244 176.197 293.311 181.369 C 288.902 184.272 283.663 185.787 278.411 185.691 C 278.81 181.921 278.285 178.081 276.89 174.567 Z M 260.518 157.528 C 262.784 156.516 265.24 155.994 267.722 155.994 C 269.273 155.994 270.814 156.195 272.3 156.592 L 272.315 156.597 C 276.257 157.654 279.755 160.105 282.128 163.429 C 279.754 166.756 276.25 169.212 272.3 170.268 C 270.808 170.667 269.269 170.869 267.722 170.868 C 265.244 170.869 262.792 170.347 260.528 169.339 C 261.544 167.539 262.078 165.508 262.076 163.443 C 262.078 161.368 261.541 159.331 260.518 157.528 Z M 276.89 152.293 C 278.287 148.777 278.81 144.938 278.413 141.168 C 283.663 141.074 288.902 142.587 293.311 145.488 C 292.246 150.661 289.612 155.437 285.832 159.081 C 283.448 156.135 280.363 153.79 276.89 152.293 Z M 271.498 150.712 C 268.478 150.217 265.391 150.322 262.411 151.02 C 262.819 149.278 263.024 147.493 263.024 145.705 C 263.024 144.432 262.922 143.168 262.72 141.932 C 265.867 140.573 269.338 140.15 272.719 140.711 C 273.28 144.093 272.857 147.565 271.498 150.712 Z M 272.261 135.017 C 268.493 134.619 264.655 135.143 261.139 136.539 C 259.64 133.067 257.296 129.98 254.347 127.596 C 257.99 123.818 262.768 121.184 267.94 120.117 C 270.842 124.527 272.357 129.767 272.261 135.017 Z M 250.037 175.482 C 252.092 175.483 254.113 174.955 255.905 173.95 C 256.916 176.217 257.438 178.671 257.438 181.153 C 257.438 182.706 257.236 184.245 256.837 185.733 C 255.782 189.681 253.327 193.185 250 195.558 C 246.67 193.182 244.216 189.678 243.163 185.727 C 242.764 184.236 242.563 182.698 242.563 181.153 C 242.563 178.659 243.091 176.193 244.111 173.916 C 245.917 174.943 247.96 175.483 250.037 175.482 Z M 244.205 163.443 C 244.205 160.227 246.823 157.611 250.037 157.611 C 253.253 157.611 255.869 160.227 255.869 163.443 C 255.869 166.659 253.253 169.275 250.037 169.275 C 246.823 169.275 244.205 166.659 244.205 163.443 Z M 255.896 152.932 C 254.107 151.929 252.089 151.402 250.037 151.405 C 247.964 151.402 245.924 151.941 244.121 152.965 C 243.094 150.684 242.563 148.209 242.563 145.707 C 242.563 144.155 242.765 142.617 243.164 141.129 C 244.217 137.183 246.671 133.677 250 131.303 C 253.328 133.677 255.784 137.183 256.84 141.138 C 257.236 142.607 257.438 144.144 257.438 145.707 C 257.44 148.197 256.913 150.658 255.896 152.932 Z M 250 95.171 C 257.044 99.714 262.472 106.521 265.337 114.348 C 259.523 115.812 254.171 118.883 250 123.158 C 245.827 118.883 240.475 115.812 234.661 114.348 C 237.526 106.521 242.954 99.714 250 95.171 Z M 232.055 120.119 C 237.23 121.184 242.008 123.818 245.653 127.599 C 242.704 129.983 240.359 133.068 238.862 136.541 C 235.343 135.143 231.503 134.619 227.734 135.02 C 227.623 129.731 229.132 124.541 232.055 120.119 Z M 239.531 169.312 C 237.251 170.34 234.778 170.871 232.276 170.869 C 230.731 170.871 229.19 170.67 227.698 170.268 C 223.75 169.215 220.246 166.761 217.872 163.431 C 220.245 160.107 223.743 157.654 227.687 156.598 L 227.701 156.594 C 229.193 156.196 230.731 155.994 232.276 155.995 C 234.791 155.995 237.272 156.531 239.543 157.555 C 238.529 159.352 237.998 161.38 237.998 163.444 C 237.997 165.499 238.525 167.521 239.531 169.312 Z M 221.589 185.692 C 216.337 185.79 211.098 184.276 206.688 181.374 C 207.753 176.203 210.387 171.427 214.168 167.781 C 216.552 170.73 219.637 173.074 223.108 174.571 C 221.712 178.084 221.19 181.924 221.589 185.692 Z M 223.11 152.295 C 219.637 153.792 216.552 156.136 214.168 159.084 C 210.387 155.437 207.753 150.658 206.688 145.49 C 211.126 142.553 216.291 141.053 221.589 141.165 C 221.188 144.936 221.712 148.779 223.11 152.295 Z M 227.283 140.715 C 230.665 140.153 234.136 140.576 237.284 141.935 C 236.789 144.956 236.894 148.044 237.592 151.024 C 234.611 150.325 231.523 150.22 228.502 150.715 C 227.143 147.568 226.719 144.096 227.283 140.715 Z M 201.733 115.167 C 209.923 113.397 218.572 114.372 226.129 117.882 C 223.036 123.035 221.431 128.939 221.52 134.951 C 215.511 134.858 209.619 136.454 204.45 139.563 C 200.94 132.005 199.965 123.356 201.733 115.167 Z M 181.74 163.432 C 186.283 156.39 193.09 150.958 200.917 148.095 C 202.381 153.907 205.452 159.258 209.73 163.432 C 205.453 167.607 202.381 172.959 200.917 178.771 C 193.09 175.906 186.283 170.476 181.74 163.432 Z M 201.733 211.699 C 199.965 203.509 200.94 194.859 204.451 187.299 C 209.596 190.374 215.551 191.988 221.524 191.91 C 221.451 197.883 223.062 203.838 226.135 208.983 C 218.577 212.494 209.925 213.469 201.733 211.699 Z M 228.502 176.151 C 229.75 176.355 231.011 176.457 232.276 176.457 C 234.074 176.457 235.858 176.247 237.592 175.84 C 236.893 178.821 236.789 181.909 237.283 184.929 C 234.136 186.288 230.665 186.712 227.283 186.151 C 226.72 182.77 227.143 179.298 228.502 176.151 Z M 227.738 191.845 C 228.556 191.931 229.376 191.977 230.198 191.977 C 233.164 191.977 236.104 191.415 238.862 190.321 C 240.359 193.794 242.704 196.879 245.65 199.264 C 242.002 203.046 237.224 205.681 232.058 206.745 C 229.156 202.336 227.641 197.095 227.738 191.845 Z M 250 231.694 C 242.956 227.152 237.526 220.344 234.662 212.517 C 240.472 211.054 245.822 207.984 250 203.704 C 254.176 207.984 259.526 211.054 265.337 212.517 C 262.472 220.344 257.042 227.151 250 231.694 Z M 267.94 206.746 C 262.772 205.683 257.996 203.047 254.348 199.266 C 257.294 196.882 259.64 193.797 261.139 190.324 C 263.897 191.418 266.836 191.979 269.803 191.979 C 270.622 191.979 271.444 191.932 272.261 191.847 C 272.357 197.1 270.842 202.339 267.94 206.746 Z M 272.717 186.153 C 269.338 186.714 265.865 186.291 262.717 184.933 C 263.212 181.914 263.108 178.825 262.411 175.845 C 265.391 176.542 268.478 176.647 271.498 176.151 C 272.855 179.299 273.28 182.772 272.717 186.153 Z M 298.265 211.701 C 290.074 213.469 281.423 212.494 273.863 208.983 C 276.937 203.839 278.548 197.886 278.474 191.91 C 284.446 191.983 290.402 190.372 295.547 187.299 C 299.059 194.859 300.035 203.509 298.265 211.701 Z M 299.081 178.773 C 297.616 172.959 294.547 167.607 290.272 163.434 C 294.547 159.262 297.616 153.912 299.081 148.096 C 306.908 150.961 313.715 156.391 318.259 163.434 C 313.715 170.479 306.91 175.909 299.081 178.773 Z"
    style="stroke-width: 4px;"
    class="icon--foscia"
    fill="#ac1b55"/>
  <path
    d="M 385.235 276.96 L 385.235 300.841 C 385.235 305.318 387.723 308.801 391.205 308.801 L 479.265 308.801 C 482.25 308.801 485.235 305.318 485.235 300.841 L 485.235 276.96 C 484.738 272.483 482.25 269 478.767 269 L 391.205 269 C 387.723 269 385.235 272.483 385.235 276.96 M 425.036 293.876 L 425.036 283.925 L 420.061 283.925 L 420.061 293.876 L 425.036 293.876 M 400.16 293.876 L 410.111 293.876 L 410.111 283.925 L 400.16 283.925 L 400.16 293.876 M 474.787 298.851 L 395.185 298.851 L 395.185 278.95 L 474.787 278.95 L 474.787 298.851 M 385.235 326.711 L 385.235 350.592 C 385.235 355.07 387.723 358.552 391.205 358.552 L 479.265 358.552 C 482.25 358.552 485.235 355.07 485.235 350.592 L 485.235 326.711 C 485.235 322.234 482.747 318.751 479.265 318.751 L 391.205 318.751 C 387.723 318.751 385.235 322.234 385.235 326.711 M 425.036 343.627 L 425.036 333.677 L 420.061 333.677 L 420.061 343.627 L 425.036 343.627 M 400.16 343.627 L 410.111 343.627 L 410.111 333.677 L 400.16 333.677 L 400.16 343.627 M 474.787 348.602 L 395.185 348.602 L 395.185 328.701 L 474.787 328.701 L 474.787 348.602 Z"
    class="icon--data"
    fill="#ac1b55"/>
  <path
    d="M 107.35 267 L 25.532 267 C 20.532 267 16.441 271.091 16.441 276.091 L 16.441 348.818 C 16.441 353.818 20.532 357.909 25.532 357.909 L 107.35 357.909 C 112.35 357.909 116.441 353.818 116.441 348.818 L 116.441 276.091 C 116.441 271.091 112.35 267 107.35 267 M 107.35 348.818 L 25.532 348.818 L 25.532 285.182 L 107.35 285.182 L 107.35 348.818 M 52.805 294.273 C 47.805 294.273 43.714 298.364 43.714 303.364 C 43.714 308.364 39.623 312.455 34.623 312.455 L 34.623 321.545 C 39.623 321.545 43.714 325.636 43.714 330.636 C 43.714 335.636 47.805 339.727 52.805 339.727 L 61.896 339.727 L 61.896 330.636 L 52.805 330.636 L 52.805 326.091 C 52.805 321.091 48.714 317 43.714 317 C 48.714 317 52.805 312.909 52.805 307.909 L 52.805 303.364 L 61.896 303.364 L 61.896 294.273 M 80.077 294.273 C 85.077 294.273 89.168 298.364 89.168 303.364 C 89.168 308.364 93.259 312.455 98.259 312.455 L 98.259 321.545 C 93.259 321.545 89.168 325.636 89.168 330.636 C 89.168 335.636 85.077 339.727 80.077 339.727 L 70.986 339.727 L 70.986 330.636 L 80.077 330.636 L 80.077 326.091 C 80.077 321.091 84.168 317 89.168 317 C 84.168 317 80.077 312.909 80.077 307.909 L 80.077 303.364 L 70.986 303.364 L 70.986 294.273 L 80.077 294.273 Z"
    class="icon--app"
    fill="#ac1b55"/>
  <path
    d="M 144.004 115.164 H 211.66 L 211.66 107.664 L 224.004 117.664 L 211.66 127.664 L 211.66 120.164 H 144.004 V 115.164 Z"
    style="transform-origin: 184.004px 117.664px;"
    transform="matrix(0.707065105438, 0.707149028778, -0.707149028778, 0.707065105438, 170.62295607806, 104.836648495595)"
    fill="#ac1b55"
    opacity="0.35"
    class="arrow"/>
  <path
    d="M 144.004 115.164 H 211.66 L 211.66 107.664 L 224.004 117.664 L 211.66 127.664 L 211.66 120.164 H 144.004 V 115.164 Z"
    style="transform-origin: 184.004px 117.664px;"
    transform="matrix(-0.707065105438, -0.707149028778, 0.707149028778, -0.707065105438, 158.720117140103, 115.192519305805)"
    fill="#ac1b55"
    opacity="0.35"
    class="arrow"/>
  <path
    d="M 144.004 115.164 H 211.66 L 211.66 107.664 L 224.004 117.664 L 211.66 127.664 L 211.66 120.164 H 144.004 V 115.164 Z"
    style="transform-origin: 184.004px 117.664px;"
    transform="matrix(-0.707065105438, 0.707149028778, 0.707149028778, 0.707065105438, -40.135717820835, 105.135112644573)"
    fill="#ac1b55"
    opacity="0.35"
    class="arrow"/>
  <path
    d="M 144.004 115.164 H 211.66 L 211.66 107.664 L 224.004 117.664 L 211.66 127.664 L 211.66 120.164 H 144.004 V 115.164 Z"
    style="transform-origin: 184.004px 117.664px;"
    transform="matrix(0.707065105438, -0.707149028778, -0.707149028778, -0.707065105438, -28.231950331021, 115.490462421039)"
    fill="#ac1b55"
    opacity="0.35"
    class="arrow"/>
  <path
    d="M 11.952 301.511 L 7.578 309.971 L 7.578 314.147 L 4.5 314.147 L 4.5 309.971 L 0.126 301.511 L 3.618 301.511 L 6.066 306.803 L 8.496 301.511 Z"
    transform="matrix(1, 0, 0, 1, 0, 73.265732)"/>
  <path
    d="M 17.751 314.291 Q 16.275 314.291 15.096 313.661 Q 13.917 313.031 13.242 311.861 Q 12.567 310.691 12.567 309.125 Q 12.567 307.577 13.251 306.398 Q 13.935 305.219 15.123 304.589 Q 16.311 303.959 17.787 303.959 Q 19.263 303.959 20.451 304.589 Q 21.639 305.219 22.323 306.398 Q 23.007 307.577 23.007 309.125 Q 23.007 310.673 22.314 311.852 Q 21.621 313.031 20.424 313.661 Q 19.227 314.291 17.751 314.291 Z M 17.751 311.627 Q 18.633 311.627 19.254 310.979 Q 19.875 310.331 19.875 309.125 Q 19.875 307.919 19.272 307.271 Q 18.669 306.623 17.787 306.623 Q 16.887 306.623 16.293 307.262 Q 15.699 307.901 15.699 309.125 Q 15.699 310.331 16.284 310.979 Q 16.869 311.627 17.751 311.627 Z"
    transform="matrix(1, 0, 0, 1, 0, 73.265732)"/>
  <path
    d="M 34.551 304.103 L 34.551 314.147 L 31.473 314.147 L 31.473 312.779 Q 31.005 313.445 30.204 313.85 Q 29.403 314.255 28.431 314.255 Q 27.279 314.255 26.397 313.742 Q 25.515 313.229 25.029 312.257 Q 24.543 311.285 24.543 309.971 L 24.543 304.103 L 27.603 304.103 L 27.603 309.557 Q 27.603 310.565 28.125 311.123 Q 28.647 311.681 29.529 311.681 Q 30.429 311.681 30.951 311.123 Q 31.473 310.565 31.473 309.557 L 31.473 304.103 Z"
    transform="matrix(1, 0, 0, 1, 0, 73.265732)"/>
  <path
    d="M 39.836 305.777 Q 40.376 304.949 41.186 304.472 Q 41.996 303.995 42.986 303.995 L 42.986 307.253 L 42.14 307.253 Q 40.988 307.253 40.412 307.748 Q 39.836 308.243 39.836 309.485 L 39.836 314.147 L 36.758 314.147 L 36.758 304.103 L 39.836 304.103 L 39.836 305.777 Z"
    transform="matrix(1, 0, 0, 1, 0, 73.265732)"/>
  <path
    d="M 47.647 309.107 Q 47.647 307.559 48.232 306.389 Q 48.817 305.219 49.825 304.589 Q 50.833 303.959 52.075 303.959 Q 53.137 303.959 53.938 304.391 Q 54.739 304.823 55.171 305.525 L 55.171 304.103 L 58.249 304.103 L 58.249 314.147 L 55.171 314.147 L 55.171 312.725 Q 54.721 313.427 53.92 313.859 Q 53.119 314.291 52.057 314.291 Q 50.833 314.291 49.825 313.652 Q 48.817 313.013 48.232 311.834 Q 47.647 310.655 47.647 309.107 Z M 55.171 309.125 Q 55.171 307.973 54.532 307.307 Q 53.893 306.641 52.975 306.641 Q 52.057 306.641 51.418 307.298 Q 50.779 307.955 50.779 309.107 Q 50.779 310.259 51.418 310.934 Q 52.057 311.609 52.975 311.609 Q 53.893 311.609 54.532 310.943 Q 55.171 310.277 55.171 309.125 Z"
    transform="matrix(1, 0, 0, 1, 0, 73.265732)"/>
  <path
    d="M 63.556 305.525 Q 64.006 304.823 64.798 304.391 Q 65.59 303.959 66.652 303.959 Q 67.894 303.959 68.902 304.589 Q 69.91 305.219 70.495 306.389 Q 71.08 307.559 71.08 309.107 Q 71.08 310.655 70.495 311.834 Q 69.91 313.013 68.902 313.652 Q 67.894 314.291 66.652 314.291 Q 65.608 314.291 64.807 313.859 Q 64.006 313.427 63.556 312.743 L 63.556 318.935 L 60.478 318.935 L 60.478 304.103 L 63.556 304.103 L 63.556 305.525 Z M 67.948 309.107 Q 67.948 307.955 67.309 307.298 Q 66.67 306.641 65.734 306.641 Q 64.816 306.641 64.177 307.307 Q 63.538 307.973 63.538 309.125 Q 63.538 310.277 64.177 310.943 Q 64.816 311.609 65.734 311.609 Q 66.652 311.609 67.3 310.934 Q 67.948 310.259 67.948 309.107 Z"
    transform="matrix(1, 0, 0, 1, 0, 73.265732)"/>
  <path
    d="M 75.759 305.525 Q 76.209 304.823 77.001 304.391 Q 77.793 303.959 78.855 303.959 Q 80.097 303.959 81.105 304.589 Q 82.113 305.219 82.698 306.389 Q 83.283 307.559 83.283 309.107 Q 83.283 310.655 82.698 311.834 Q 82.113 313.013 81.105 313.652 Q 80.097 314.291 78.855 314.291 Q 77.811 314.291 77.01 313.859 Q 76.209 313.427 75.759 312.743 L 75.759 318.935 L 72.681 318.935 L 72.681 304.103 L 75.759 304.103 L 75.759 305.525 Z M 80.151 309.107 Q 80.151 307.955 79.512 307.298 Q 78.873 306.641 77.937 306.641 Q 77.019 306.641 76.38 307.307 Q 75.741 307.973 75.741 309.125 Q 75.741 310.277 76.38 310.943 Q 77.019 311.609 77.937 311.609 Q 78.855 311.609 79.503 310.934 Q 80.151 310.259 80.151 309.107 Z"
    transform="matrix(1, 0, 0, 1, 0, 73.265732)"/>
  <path
    d="M 87.979 300.827 L 87.979 314.147 L 84.901 314.147 L 84.901 300.827 Z"
    transform="matrix(1, 0, 0, 1, 0, 73.265732)"/>
  <path
    d="M 91.761 303.059 Q 90.951 303.059 90.438 302.582 Q 89.925 302.105 89.925 301.403 Q 89.925 300.683 90.438 300.206 Q 90.951 299.729 91.761 299.729 Q 92.553 299.729 93.066 300.206 Q 93.579 300.683 93.579 301.403 Q 93.579 302.105 93.066 302.582 Q 92.553 303.059 91.761 303.059 Z M 93.291 304.103 L 93.291 314.147 L 90.213 314.147 L 90.213 304.103 Z"
    transform="matrix(1, 0, 0, 1, 0, 73.265732)"/>
  <path
    d="M 94.898 309.125 Q 94.898 307.559 95.537 306.389 Q 96.176 305.219 97.319 304.589 Q 98.462 303.959 99.938 303.959 Q 101.828 303.959 103.097 304.949 Q 104.366 305.939 104.762 307.739 L 101.486 307.739 Q 101.072 306.587 99.884 306.587 Q 99.038 306.587 98.534 307.244 Q 98.03 307.901 98.03 309.125 Q 98.03 310.349 98.534 311.006 Q 99.038 311.663 99.884 311.663 Q 101.072 311.663 101.486 310.511 L 104.762 310.511 Q 104.366 312.275 103.088 313.283 Q 101.81 314.291 99.938 314.291 Q 98.462 314.291 97.319 313.661 Q 96.176 313.031 95.537 311.861 Q 94.898 310.691 94.898 309.125 Z"
    transform="matrix(1, 0, 0, 1, 0, 73.265732)"/>
  <path
    d="M 105.774 309.107 Q 105.774 307.559 106.359 306.389 Q 106.944 305.219 107.952 304.589 Q 108.96 303.959 110.202 303.959 Q 111.264 303.959 112.065 304.391 Q 112.866 304.823 113.298 305.525 L 113.298 304.103 L 116.376 304.103 L 116.376 314.147 L 113.298 314.147 L 113.298 312.725 Q 112.848 313.427 112.047 313.859 Q 111.246 314.291 110.184 314.291 Q 108.96 314.291 107.952 313.652 Q 106.944 313.013 106.359 311.834 Q 105.774 310.655 105.774 309.107 Z M 113.298 309.125 Q 113.298 307.973 112.659 307.307 Q 112.02 306.641 111.102 306.641 Q 110.184 306.641 109.545 307.298 Q 108.906 307.955 108.906 309.107 Q 108.906 310.259 109.545 310.934 Q 110.184 311.609 111.102 311.609 Q 112.02 311.609 112.659 310.943 Q 113.298 310.277 113.298 309.125 Z"
    transform="matrix(1, 0, 0, 1, 0, 73.265732)"/>
  <path
    d="M 124.203 311.537 L 124.203 314.147 L 122.637 314.147 Q 120.963 314.147 120.027 313.328 Q 119.091 312.509 119.091 310.655 L 119.091 306.659 L 117.867 306.659 L 117.867 304.103 L 119.091 304.103 L 119.091 301.655 L 122.169 301.655 L 122.169 304.103 L 124.185 304.103 L 124.185 306.659 L 122.169 306.659 L 122.169 310.691 Q 122.169 311.141 122.385 311.339 Q 122.601 311.537 123.105 311.537 Z"
    transform="matrix(1, 0, 0, 1, 0, 73.265732)"/>
  <path
    d="M 127.45 303.059 Q 126.64 303.059 126.127 302.582 Q 125.614 302.105 125.614 301.403 Q 125.614 300.683 126.127 300.206 Q 126.64 299.729 127.45 299.729 Q 128.242 299.729 128.755 300.206 Q 129.268 300.683 129.268 301.403 Q 129.268 302.105 128.755 302.582 Q 128.242 303.059 127.45 303.059 Z M 128.98 304.103 L 128.98 314.147 L 125.902 314.147 L 125.902 304.103 Z"
    transform="matrix(1, 0, 0, 1, 0, 73.265732)"/>
  <path
    d="M 135.787 314.291 Q 134.311 314.291 133.132 313.661 Q 131.953 313.031 131.278 311.861 Q 130.603 310.691 130.603 309.125 Q 130.603 307.577 131.287 306.398 Q 131.971 305.219 133.159 304.589 Q 134.347 303.959 135.823 303.959 Q 137.299 303.959 138.487 304.589 Q 139.675 305.219 140.359 306.398 Q 141.043 307.577 141.043 309.125 Q 141.043 310.673 140.35 311.852 Q 139.657 313.031 138.46 313.661 Q 137.263 314.291 135.787 314.291 Z M 135.787 311.627 Q 136.669 311.627 137.29 310.979 Q 137.911 310.331 137.911 309.125 Q 137.911 307.919 137.308 307.271 Q 136.705 306.623 135.823 306.623 Q 134.923 306.623 134.329 307.262 Q 133.735 307.901 133.735 309.125 Q 133.735 310.331 134.32 310.979 Q 134.905 311.627 135.787 311.627 Z"
    transform="matrix(1, 0, 0, 1, 0, 73.265732)"/>
  <path
    d="M 148.789 303.995 Q 150.553 303.995 151.606 305.138 Q 152.659 306.281 152.659 308.279 L 152.659 314.147 L 149.599 314.147 L 149.599 308.693 Q 149.599 307.685 149.077 307.127 Q 148.555 306.569 147.673 306.569 Q 146.791 306.569 146.269 307.127 Q 145.747 307.685 145.747 308.693 L 145.747 314.147 L 142.669 314.147 L 142.669 304.103 L 145.747 304.103 L 145.747 305.435 Q 146.215 304.769 147.007 304.382 Q 147.799 303.995 148.789 303.995 Z"
    transform="matrix(1, 0, 0, 1, 0, 73.265732)"/>
  <path
    d="M 5.256 340.409 Q 3.51 338.735 2.538 336.089 Q 1.566 333.443 1.566 330.383 Q 1.566 327.287 2.574 324.596 Q 3.582 321.905 5.436 320.213 L 8.46 320.213 L 8.46 320.501 Q 6.57 322.373 5.544 324.992 Q 4.518 327.611 4.518 330.383 Q 4.518 333.137 5.508 335.693 Q 6.498 338.249 8.298 340.121 L 8.298 340.409 L 5.256 340.409 Z"
    transform="matrix(1, 0, 0, 1, 0, 73.265732)"/>
  <path
    d="M 17.614 324.011 L 17.614 332.615 Q 17.614 334.613 16.489 335.693 Q 15.364 336.773 13.456 336.773 Q 11.458 336.773 10.252 335.639 Q 9.046 334.505 9.046 332.417 L 12.106 332.417 Q 12.106 333.209 12.43 333.614 Q 12.754 334.019 13.366 334.019 Q 13.924 334.019 14.23 333.659 Q 14.536 333.299 14.536 332.615 L 14.536 324.011 Z"
    transform="matrix(1, 0, 0, 1, 0, 73.265732)"/>
  <path
    d="M 19.474 331.607 Q 19.474 330.059 20.059 328.889 Q 20.644 327.719 21.652 327.089 Q 22.66 326.459 23.902 326.459 Q 24.964 326.459 25.765 326.891 Q 26.566 327.323 26.998 328.025 L 26.998 326.603 L 30.076 326.603 L 30.076 336.647 L 26.998 336.647 L 26.998 335.225 Q 26.548 335.927 25.747 336.359 Q 24.946 336.791 23.884 336.791 Q 22.66 336.791 21.652 336.152 Q 20.644 335.513 20.059 334.334 Q 19.474 333.155 19.474 331.607 Z M 26.998 331.625 Q 26.998 330.473 26.359 329.807 Q 25.72 329.141 24.802 329.141 Q 23.884 329.141 23.245 329.798 Q 22.606 330.455 22.606 331.607 Q 22.606 332.759 23.245 333.434 Q 23.884 334.109 24.802 334.109 Q 25.72 334.109 26.359 333.443 Q 26.998 332.777 26.998 331.625 Z"
    transform="matrix(1, 0, 0, 1, 0, 73.265732)"/>
  <path
    d="M 36.807 333.767 L 38.985 326.603 L 42.261 326.603 L 38.697 336.647 L 34.899 336.647 L 31.335 326.603 L 34.629 326.603 Z"
    transform="matrix(1, 0, 0, 1, 0, 73.265732)"/>
  <path
    d="M 42.943 331.607 Q 42.943 330.059 43.528 328.889 Q 44.113 327.719 45.121 327.089 Q 46.129 326.459 47.371 326.459 Q 48.433 326.459 49.234 326.891 Q 50.035 327.323 50.467 328.025 L 50.467 326.603 L 53.545 326.603 L 53.545 336.647 L 50.467 336.647 L 50.467 335.225 Q 50.017 335.927 49.216 336.359 Q 48.415 336.791 47.353 336.791 Q 46.129 336.791 45.121 336.152 Q 44.113 335.513 43.528 334.334 Q 42.943 333.155 42.943 331.607 Z M 50.467 331.625 Q 50.467 330.473 49.828 329.807 Q 49.189 329.141 48.271 329.141 Q 47.353 329.141 46.714 329.798 Q 46.075 330.455 46.075 331.607 Q 46.075 332.759 46.714 333.434 Q 47.353 334.109 48.271 334.109 Q 49.189 334.109 49.828 333.443 Q 50.467 332.777 50.467 331.625 Z"
    transform="matrix(1, 0, 0, 1, 0, 73.265732)"/>
  <path
    d="M 60.331 336.773 Q 58.945 336.773 57.847 336.323 Q 56.749 335.873 56.092 334.991 Q 55.435 334.109 55.399 332.867 L 58.675 332.867 Q 58.747 333.569 59.161 333.938 Q 59.575 334.307 60.241 334.307 Q 60.925 334.307 61.321 333.992 Q 61.717 333.677 61.717 333.119 Q 61.717 332.651 61.402 332.345 Q 61.087 332.039 60.628 331.841 Q 60.169 331.643 59.323 331.391 Q 58.099 331.013 57.325 330.635 Q 56.551 330.257 55.993 329.519 Q 55.435 328.781 55.435 327.593 Q 55.435 325.829 56.713 324.83 Q 57.991 323.831 60.043 323.831 Q 62.131 323.831 63.409 324.83 Q 64.687 325.829 64.777 327.611 L 61.447 327.611 Q 61.411 326.999 60.997 326.648 Q 60.583 326.297 59.935 326.297 Q 59.377 326.297 59.035 326.594 Q 58.693 326.891 58.693 327.449 Q 58.693 328.061 59.269 328.403 Q 59.845 328.745 61.069 329.141 Q 62.293 329.555 63.058 329.933 Q 63.823 330.311 64.381 331.031 Q 64.939 331.751 64.939 332.885 Q 64.939 333.965 64.39 334.847 Q 63.841 335.729 62.797 336.251 Q 61.753 336.773 60.331 336.773 Z"
    transform="matrix(1, 0, 0, 1, 0, 73.265732)"/>
  <path
    d="M 66.21 331.625 Q 66.21 330.059 66.849 328.889 Q 67.488 327.719 68.631 327.089 Q 69.774 326.459 71.25 326.459 Q 73.14 326.459 74.409 327.449 Q 75.678 328.439 76.074 330.239 L 72.798 330.239 Q 72.384 329.087 71.196 329.087 Q 70.35 329.087 69.846 329.744 Q 69.342 330.401 69.342 331.625 Q 69.342 332.849 69.846 333.506 Q 70.35 334.163 71.196 334.163 Q 72.384 334.163 72.798 333.011 L 76.074 333.011 Q 75.678 334.775 74.4 335.783 Q 73.122 336.791 71.25 336.791 Q 69.774 336.791 68.631 336.161 Q 67.488 335.531 66.849 334.361 Q 66.21 333.191 66.21 331.625 Z"
    transform="matrix(1, 0, 0, 1, 0, 73.265732)"/>
  <path
    d="M 80.791 328.277 Q 81.331 327.449 82.141 326.972 Q 82.951 326.495 83.941 326.495 L 83.941 329.753 L 83.095 329.753 Q 81.943 329.753 81.367 330.248 Q 80.791 330.743 80.791 331.985 L 80.791 336.647 L 77.713 336.647 L 77.713 326.603 L 80.791 326.603 L 80.791 328.277 Z"
    transform="matrix(1, 0, 0, 1, 0, 73.265732)"/>
  <path
    d="M 86.949 325.559 Q 86.139 325.559 85.626 325.082 Q 85.113 324.605 85.113 323.903 Q 85.113 323.183 85.626 322.706 Q 86.139 322.229 86.949 322.229 Q 87.741 322.229 88.254 322.706 Q 88.767 323.183 88.767 323.903 Q 88.767 324.605 88.254 325.082 Q 87.741 325.559 86.949 325.559 Z M 88.479 326.603 L 88.479 336.647 L 85.401 336.647 L 85.401 326.603 Z"
    transform="matrix(1, 0, 0, 1, 0, 73.265732)"/>
  <path
    d="M 93.791 328.025 Q 94.241 327.323 95.033 326.891 Q 95.825 326.459 96.887 326.459 Q 98.129 326.459 99.137 327.089 Q 100.145 327.719 100.73 328.889 Q 101.315 330.059 101.315 331.607 Q 101.315 333.155 100.73 334.334 Q 100.145 335.513 99.137 336.152 Q 98.129 336.791 96.887 336.791 Q 95.843 336.791 95.042 336.359 Q 94.241 335.927 93.791 335.243 L 93.791 341.435 L 90.713 341.435 L 90.713 326.603 L 93.791 326.603 L 93.791 328.025 Z M 98.183 331.607 Q 98.183 330.455 97.544 329.798 Q 96.905 329.141 95.969 329.141 Q 95.051 329.141 94.412 329.807 Q 93.773 330.473 93.773 331.625 Q 93.773 332.777 94.412 333.443 Q 95.051 334.109 95.969 334.109 Q 96.887 334.109 97.535 333.434 Q 98.183 332.759 98.183 331.607 Z"
    transform="matrix(1, 0, 0, 1, 0, 73.265732)"/>
  <path
    d="M 108.515 334.037 L 108.515 336.647 L 106.949 336.647 Q 105.275 336.647 104.339 335.828 Q 103.403 335.009 103.403 333.155 L 103.403 329.159 L 102.179 329.159 L 102.179 326.603 L 103.403 326.603 L 103.403 324.155 L 106.481 324.155 L 106.481 326.603 L 108.497 326.603 L 108.497 329.159 L 106.481 329.159 L 106.481 333.191 Q 106.481 333.641 106.697 333.839 Q 106.913 334.037 107.417 334.037 Z"
    transform="matrix(1, 0, 0, 1, 0, 73.265732)"/>
  <path
    d="M 117.088 319.547 L 112.264 340.013 L 109.294 340.013 L 114.118 319.547 Z"
    transform="matrix(1, 0, 0, 1, 0, 73.265732)"/>
  <path
    d="M 127.461 324.011 L 127.461 326.477 L 124.113 326.477 L 124.113 336.647 L 121.035 336.647 L 121.035 326.477 L 117.687 326.477 L 117.687 324.011 Z"
    transform="matrix(1, 0, 0, 1, 0, 73.265732)"/>
  <path
    d="M 139.256 326.603 L 132.956 341.417 L 129.644 341.417 L 131.948 336.305 L 127.862 326.603 L 131.3 326.603 L 133.622 332.885 L 135.926 326.603 Z"
    transform="matrix(1, 0, 0, 1, 0, 73.265732)"/>
  <path
    d="M 143.45 328.025 Q 143.9 327.323 144.692 326.891 Q 145.484 326.459 146.546 326.459 Q 147.788 326.459 148.796 327.089 Q 149.804 327.719 150.389 328.889 Q 150.974 330.059 150.974 331.607 Q 150.974 333.155 150.389 334.334 Q 149.804 335.513 148.796 336.152 Q 147.788 336.791 146.546 336.791 Q 145.502 336.791 144.701 336.359 Q 143.9 335.927 143.45 335.243 L 143.45 341.435 L 140.372 341.435 L 140.372 326.603 L 143.45 326.603 L 143.45 328.025 Z M 147.842 331.607 Q 147.842 330.455 147.203 329.798 Q 146.564 329.141 145.628 329.141 Q 144.71 329.141 144.071 329.807 Q 143.432 330.473 143.432 331.625 Q 143.432 332.777 144.071 333.443 Q 144.71 334.109 145.628 334.109 Q 146.546 334.109 147.194 333.434 Q 147.842 332.759 147.842 331.607 Z"
    transform="matrix(1, 0, 0, 1, 0, 73.265732)"/>
  <path
    d="M 162.043 331.463 Q 162.043 331.895 161.989 332.363 L 155.023 332.363 Q 155.095 333.299 155.626 333.794 Q 156.157 334.289 156.931 334.289 Q 158.083 334.289 158.533 333.317 L 161.809 333.317 Q 161.557 334.307 160.9 335.099 Q 160.243 335.891 159.253 336.341 Q 158.263 336.791 157.039 336.791 Q 155.563 336.791 154.411 336.161 Q 153.259 335.531 152.611 334.361 Q 151.963 333.191 151.963 331.625 Q 151.963 330.059 152.602 328.889 Q 153.241 327.719 154.393 327.089 Q 155.545 326.459 157.039 326.459 Q 158.497 326.459 159.631 327.071 Q 160.765 327.683 161.404 328.817 Q 162.043 329.951 162.043 331.463 Z M 158.893 330.653 Q 158.893 329.861 158.353 329.393 Q 157.813 328.925 157.003 328.925 Q 156.229 328.925 155.698 329.375 Q 155.167 329.825 155.041 330.653 Z"
    transform="matrix(1, 0, 0, 1, 0, 73.265732)"/>
  <path
    d="M 168.226 336.773 Q 166.84 336.773 165.742 336.323 Q 164.644 335.873 163.987 334.991 Q 163.33 334.109 163.294 332.867 L 166.57 332.867 Q 166.642 333.569 167.056 333.938 Q 167.47 334.307 168.136 334.307 Q 168.82 334.307 169.216 333.992 Q 169.612 333.677 169.612 333.119 Q 169.612 332.651 169.297 332.345 Q 168.982 332.039 168.523 331.841 Q 168.064 331.643 167.218 331.391 Q 165.994 331.013 165.22 330.635 Q 164.446 330.257 163.888 329.519 Q 163.33 328.781 163.33 327.593 Q 163.33 325.829 164.608 324.83 Q 165.886 323.831 167.938 323.831 Q 170.026 323.831 171.304 324.83 Q 172.582 325.829 172.672 327.611 L 169.342 327.611 Q 169.306 326.999 168.892 326.648 Q 168.478 326.297 167.83 326.297 Q 167.272 326.297 166.93 326.594 Q 166.588 326.891 166.588 327.449 Q 166.588 328.061 167.164 328.403 Q 167.74 328.745 168.964 329.141 Q 170.188 329.555 170.953 329.933 Q 171.718 330.311 172.276 331.031 Q 172.834 331.751 172.834 332.885 Q 172.834 333.965 172.285 334.847 Q 171.736 335.729 170.692 336.251 Q 169.648 336.773 168.226 336.773 Z"
    transform="matrix(1, 0, 0, 1, 0, 73.265732)"/>
  <path
    d="M 174.105 331.625 Q 174.105 330.059 174.744 328.889 Q 175.383 327.719 176.526 327.089 Q 177.669 326.459 179.145 326.459 Q 181.035 326.459 182.304 327.449 Q 183.573 328.439 183.969 330.239 L 180.693 330.239 Q 180.279 329.087 179.091 329.087 Q 178.245 329.087 177.741 329.744 Q 177.237 330.401 177.237 331.625 Q 177.237 332.849 177.741 333.506 Q 178.245 334.163 179.091 334.163 Q 180.279 334.163 180.693 333.011 L 183.969 333.011 Q 183.573 334.775 182.295 335.783 Q 181.017 336.791 179.145 336.791 Q 177.669 336.791 176.526 336.161 Q 175.383 335.531 174.744 334.361 Q 174.105 333.191 174.105 331.625 Z"
    transform="matrix(1, 0, 0, 1, 0, 73.265732)"/>
  <path
    d="M 188.67 328.277 Q 189.21 327.449 190.02 326.972 Q 190.83 326.495 191.82 326.495 L 191.82 329.753 L 190.974 329.753 Q 189.822 329.753 189.246 330.248 Q 188.67 330.743 188.67 331.985 L 188.67 336.647 L 185.592 336.647 L 185.592 326.603 L 188.67 326.603 L 188.67 328.277 Z"
    transform="matrix(1, 0, 0, 1, 0, 73.265732)"/>
  <path
    d="M 194.844 325.559 Q 194.034 325.559 193.521 325.082 Q 193.008 324.605 193.008 323.903 Q 193.008 323.183 193.521 322.706 Q 194.034 322.229 194.844 322.229 Q 195.636 322.229 196.149 322.706 Q 196.662 323.183 196.662 323.903 Q 196.662 324.605 196.149 325.082 Q 195.636 325.559 194.844 325.559 Z M 196.374 326.603 L 196.374 336.647 L 193.296 336.647 L 193.296 326.603 Z"
    transform="matrix(1, 0, 0, 1, 0, 73.265732)"/>
  <path
    d="M 201.686 328.025 Q 202.136 327.323 202.928 326.891 Q 203.72 326.459 204.782 326.459 Q 206.024 326.459 207.032 327.089 Q 208.04 327.719 208.625 328.889 Q 209.21 330.059 209.21 331.607 Q 209.21 333.155 208.625 334.334 Q 208.04 335.513 207.032 336.152 Q 206.024 336.791 204.782 336.791 Q 203.738 336.791 202.937 336.359 Q 202.136 335.927 201.686 335.243 L 201.686 341.435 L 198.608 341.435 L 198.608 326.603 L 201.686 326.603 L 201.686 328.025 Z M 206.078 331.607 Q 206.078 330.455 205.439 329.798 Q 204.8 329.141 203.864 329.141 Q 202.946 329.141 202.307 329.807 Q 201.668 330.473 201.668 331.625 Q 201.668 332.777 202.307 333.443 Q 202.946 334.109 203.864 334.109 Q 204.782 334.109 205.43 333.434 Q 206.078 332.759 206.078 331.607 Z"
    transform="matrix(1, 0, 0, 1, 0, 73.265732)"/>
  <path
    d="M 216.41 334.037 L 216.41 336.647 L 214.844 336.647 Q 213.17 336.647 212.234 335.828 Q 211.298 335.009 211.298 333.155 L 211.298 329.159 L 210.074 329.159 L 210.074 326.603 L 211.298 326.603 L 211.298 324.155 L 214.376 324.155 L 214.376 326.603 L 216.392 326.603 L 216.392 329.159 L 214.376 329.159 L 214.376 333.191 Q 214.376 333.641 214.592 333.839 Q 214.808 334.037 215.312 334.037 Z"
    transform="matrix(1, 0, 0, 1, 0, 73.265732)"/>
  <path
    d="M 217.281 340.409 L 217.281 340.121 Q 219.081 338.249 220.071 335.693 Q 221.061 333.137 221.061 330.383 Q 221.061 327.611 220.035 324.992 Q 219.009 322.373 217.119 320.501 L 217.119 320.213 L 220.143 320.213 Q 221.997 321.905 223.005 324.596 Q 224.013 327.287 224.013 330.383 Q 224.013 333.443 223.041 336.089 Q 222.069 338.735 220.323 340.409 Z"
    transform="matrix(1, 0, 0, 1, 0, 73.265732)"/>
  <path
    d="M -146.242 301.511 L -150.616 309.971 L -150.616 314.147 L -153.694 314.147 L -153.694 309.971 L -158.068 301.511 L -154.576 301.511 L -152.128 306.803 L -149.698 301.511 Z"
    transform="matrix(1, 0, 0, 1, 500, 73.265732)"/>
  <path
    d="M -140.443 314.291 Q -141.919 314.291 -143.098 313.661 Q -144.277 313.031 -144.952 311.861 Q -145.627 310.691 -145.627 309.125 Q -145.627 307.577 -144.943 306.398 Q -144.259 305.219 -143.071 304.589 Q -141.883 303.959 -140.407 303.959 Q -138.931 303.959 -137.743 304.589 Q -136.555 305.219 -135.871 306.398 Q -135.187 307.577 -135.187 309.125 Q -135.187 310.673 -135.88 311.852 Q -136.573 313.031 -137.77 313.661 Q -138.967 314.291 -140.443 314.291 Z M -140.443 311.627 Q -139.561 311.627 -138.94 310.979 Q -138.319 310.331 -138.319 309.125 Q -138.319 307.919 -138.922 307.271 Q -139.525 306.623 -140.407 306.623 Q -141.307 306.623 -141.901 307.262 Q -142.495 307.901 -142.495 309.125 Q -142.495 310.331 -141.91 310.979 Q -141.325 311.627 -140.443 311.627 Z"
    transform="matrix(1, 0, 0, 1, 500, 73.265732)"/>
  <path
    d="M -123.643 304.103 L -123.643 314.147 L -126.721 314.147 L -126.721 312.779 Q -127.189 313.445 -127.99 313.85 Q -128.791 314.255 -129.763 314.255 Q -130.915 314.255 -131.797 313.742 Q -132.679 313.229 -133.165 312.257 Q -133.651 311.285 -133.651 309.971 L -133.651 304.103 L -130.591 304.103 L -130.591 309.557 Q -130.591 310.565 -130.069 311.123 Q -129.547 311.681 -128.665 311.681 Q -127.765 311.681 -127.243 311.123 Q -126.721 310.565 -126.721 309.557 L -126.721 304.103 Z"
    transform="matrix(1, 0, 0, 1, 500, 73.265732)"/>
  <path
    d="M -118.358 305.777 Q -117.818 304.949 -117.008 304.472 Q -116.198 303.995 -115.208 303.995 L -115.208 307.253 L -116.054 307.253 Q -117.206 307.253 -117.782 307.748 Q -118.358 308.243 -118.358 309.485 L -118.358 314.147 L -121.436 314.147 L -121.436 304.103 L -118.358 304.103 L -118.358 305.777 Z"
    transform="matrix(1, 0, 0, 1, 500, 73.265732)"/>
  <path
    d="M -110.547 309.107 Q -110.547 307.559 -109.962 306.389 Q -109.377 305.219 -108.369 304.589 Q -107.361 303.959 -106.119 303.959 Q -105.129 303.959 -104.31 304.373 Q -103.491 304.787 -103.023 305.489 L -103.023 300.827 L -99.945 300.827 L -99.945 314.147 L -103.023 314.147 L -103.023 312.707 Q -103.455 313.427 -104.256 313.859 Q -105.057 314.291 -106.119 314.291 Q -107.361 314.291 -108.369 313.652 Q -109.377 313.013 -109.962 311.834 Q -110.547 310.655 -110.547 309.107 Z M -103.023 309.125 Q -103.023 307.973 -103.662 307.307 Q -104.301 306.641 -105.219 306.641 Q -106.137 306.641 -106.776 307.298 Q -107.415 307.955 -107.415 309.107 Q -107.415 310.259 -106.776 310.934 Q -106.137 311.609 -105.219 311.609 Q -104.301 311.609 -103.662 310.943 Q -103.023 310.277 -103.023 309.125 Z"
    transform="matrix(1, 0, 0, 1, 500, 73.265732)"/>
  <path
    d="M -98.328 309.107 Q -98.328 307.559 -97.743 306.389 Q -97.158 305.219 -96.15 304.589 Q -95.142 303.959 -93.9 303.959 Q -92.838 303.959 -92.037 304.391 Q -91.236 304.823 -90.804 305.525 L -90.804 304.103 L -87.726 304.103 L -87.726 314.147 L -90.804 314.147 L -90.804 312.725 Q -91.254 313.427 -92.055 313.859 Q -92.856 314.291 -93.918 314.291 Q -95.142 314.291 -96.15 313.652 Q -97.158 313.013 -97.743 311.834 Q -98.328 310.655 -98.328 309.107 Z M -90.804 309.125 Q -90.804 307.973 -91.443 307.307 Q -92.082 306.641 -93 306.641 Q -93.918 306.641 -94.557 307.298 Q -95.196 307.955 -95.196 309.107 Q -95.196 310.259 -94.557 310.934 Q -93.918 311.609 -93 311.609 Q -92.082 311.609 -91.443 310.943 Q -90.804 310.277 -90.804 309.125 Z"
    transform="matrix(1, 0, 0, 1, 500, 73.265732)"/>
  <path
    d="M -79.915 311.537 L -79.915 314.147 L -81.481 314.147 Q -83.155 314.147 -84.091 313.328 Q -85.027 312.509 -85.027 310.655 L -85.027 306.659 L -86.251 306.659 L -86.251 304.103 L -85.027 304.103 L -85.027 301.655 L -81.949 301.655 L -81.949 304.103 L -79.933 304.103 L -79.933 306.659 L -81.949 306.659 L -81.949 310.691 Q -81.949 311.141 -81.733 311.339 Q -81.517 311.537 -81.013 311.537 Z"
    transform="matrix(1, 0, 0, 1, 500, 73.265732)"/>
  <path
    d="M -78.812 309.107 Q -78.812 307.559 -78.227 306.389 Q -77.642 305.219 -76.634 304.589 Q -75.626 303.959 -74.384 303.959 Q -73.322 303.959 -72.521 304.391 Q -71.72 304.823 -71.288 305.525 L -71.288 304.103 L -68.21 304.103 L -68.21 314.147 L -71.288 314.147 L -71.288 312.725 Q -71.738 313.427 -72.539 313.859 Q -73.34 314.291 -74.402 314.291 Q -75.626 314.291 -76.634 313.652 Q -77.642 313.013 -78.227 311.834 Q -78.812 310.655 -78.812 309.107 Z M -71.288 309.125 Q -71.288 307.973 -71.927 307.307 Q -72.566 306.641 -73.484 306.641 Q -74.402 306.641 -75.041 307.298 Q -75.68 307.955 -75.68 309.107 Q -75.68 310.259 -75.041 310.934 Q -74.402 311.609 -73.484 311.609 Q -72.566 311.609 -71.927 310.943 Q -71.288 310.277 -71.288 309.125 Z"
    transform="matrix(1, 0, 0, 1, 500, 73.265732)"/>
  <path
    d="M -58.097 314.291 Q -59.411 314.291 -60.437 313.841 Q -61.463 313.391 -62.057 312.608 Q -62.651 311.825 -62.723 310.853 L -59.681 310.853 Q -59.627 311.375 -59.195 311.699 Q -58.763 312.023 -58.133 312.023 Q -57.557 312.023 -57.242 311.798 Q -56.927 311.573 -56.927 311.213 Q -56.927 310.781 -57.377 310.574 Q -57.827 310.367 -58.835 310.115 Q -59.915 309.863 -60.635 309.584 Q -61.355 309.305 -61.877 308.702 Q -62.399 308.099 -62.399 307.073 Q -62.399 306.209 -61.922 305.498 Q -61.445 304.787 -60.518 304.373 Q -59.591 303.959 -58.313 303.959 Q -56.423 303.959 -55.334 304.895 Q -54.245 305.831 -54.083 307.379 L -56.927 307.379 Q -56.999 306.857 -57.386 306.551 Q -57.773 306.245 -58.403 306.245 Q -58.943 306.245 -59.231 306.452 Q -59.519 306.659 -59.519 307.019 Q -59.519 307.451 -59.06 307.667 Q -58.601 307.883 -57.629 308.099 Q -56.513 308.387 -55.811 308.666 Q -55.109 308.945 -54.578 309.566 Q -54.047 310.187 -54.029 311.231 Q -54.029 312.113 -54.524 312.806 Q -55.019 313.499 -55.946 313.895 Q -56.873 314.291 -58.097 314.291 Z"
    transform="matrix(1, 0, 0, 1, 500, 73.265732)"/>
  <path
    d="M -47.564 314.291 Q -49.04 314.291 -50.219 313.661 Q -51.398 313.031 -52.073 311.861 Q -52.748 310.691 -52.748 309.125 Q -52.748 307.577 -52.064 306.398 Q -51.38 305.219 -50.192 304.589 Q -49.004 303.959 -47.528 303.959 Q -46.052 303.959 -44.864 304.589 Q -43.676 305.219 -42.992 306.398 Q -42.308 307.577 -42.308 309.125 Q -42.308 310.673 -43.001 311.852 Q -43.694 313.031 -44.891 313.661 Q -46.088 314.291 -47.564 314.291 Z M -47.564 311.627 Q -46.682 311.627 -46.061 310.979 Q -45.44 310.331 -45.44 309.125 Q -45.44 307.919 -46.043 307.271 Q -46.646 306.623 -47.528 306.623 Q -48.428 306.623 -49.022 307.262 Q -49.616 307.901 -49.616 309.125 Q -49.616 310.331 -49.031 310.979 Q -48.446 311.627 -47.564 311.627 Z"
    transform="matrix(1, 0, 0, 1, 500, 73.265732)"/>
  <path
    d="M -30.765 304.103 L -30.765 314.147 L -33.843 314.147 L -33.843 312.779 Q -34.311 313.445 -35.112 313.85 Q -35.913 314.255 -36.885 314.255 Q -38.037 314.255 -38.919 313.742 Q -39.801 313.229 -40.287 312.257 Q -40.773 311.285 -40.773 309.971 L -40.773 304.103 L -37.713 304.103 L -37.713 309.557 Q -37.713 310.565 -37.191 311.123 Q -36.669 311.681 -35.787 311.681 Q -34.887 311.681 -34.365 311.123 Q -33.843 310.565 -33.843 309.557 L -33.843 304.103 Z"
    transform="matrix(1, 0, 0, 1, 500, 73.265732)"/>
  <path
    d="M -25.479 305.777 Q -24.939 304.949 -24.129 304.472 Q -23.319 303.995 -22.329 303.995 L -22.329 307.253 L -23.175 307.253 Q -24.327 307.253 -24.903 307.748 Q -25.479 308.243 -25.479 309.485 L -25.479 314.147 L -28.557 314.147 L -28.557 304.103 L -25.479 304.103 L -25.479 305.777 Z"
    transform="matrix(1, 0, 0, 1, 500, 73.265732)"/>
  <path
    d="M -21.481 309.125 Q -21.481 307.559 -20.842 306.389 Q -20.203 305.219 -19.06 304.589 Q -17.917 303.959 -16.441 303.959 Q -14.551 303.959 -13.282 304.949 Q -12.013 305.939 -11.617 307.739 L -14.893 307.739 Q -15.307 306.587 -16.495 306.587 Q -17.341 306.587 -17.845 307.244 Q -18.349 307.901 -18.349 309.125 Q -18.349 310.349 -17.845 311.006 Q -17.341 311.663 -16.495 311.663 Q -15.307 311.663 -14.893 310.511 L -11.617 310.511 Q -12.013 312.275 -13.291 313.283 Q -14.569 314.291 -16.441 314.291 Q -17.917 314.291 -19.06 313.661 Q -20.203 313.031 -20.842 311.861 Q -21.481 310.691 -21.481 309.125 Z"
    transform="matrix(1, 0, 0, 1, 500, 73.265732)"/>
  <path
    d="M -0.51 308.963 Q -0.51 309.395 -0.564 309.863 L -7.53 309.863 Q -7.458 310.799 -6.927 311.294 Q -6.396 311.789 -5.622 311.789 Q -4.47 311.789 -4.02 310.817 L -0.744 310.817 Q -0.996 311.807 -1.653 312.599 Q -2.31 313.391 -3.3 313.841 Q -4.29 314.291 -5.514 314.291 Q -6.99 314.291 -8.142 313.661 Q -9.294 313.031 -9.942 311.861 Q -10.59 310.691 -10.59 309.125 Q -10.59 307.559 -9.951 306.389 Q -9.312 305.219 -8.16 304.589 Q -7.008 303.959 -5.514 303.959 Q -4.056 303.959 -2.922 304.571 Q -1.788 305.183 -1.149 306.317 Q -0.51 307.451 -0.51 308.963 Z M -3.66 308.153 Q -3.66 307.361 -4.2 306.893 Q -4.74 306.425 -5.55 306.425 Q -6.324 306.425 -6.855 306.875 Q -7.386 307.325 -7.512 308.153 Z"
    transform="matrix(1, 0, 0, 1, 500, 73.265732)"/>
  <path
    d="M -183.455 340.409 Q -185.201 338.735 -186.173 336.089 Q -187.145 333.443 -187.145 330.383 Q -187.145 327.287 -186.137 324.596 Q -185.129 321.905 -183.275 320.213 L -180.251 320.213 L -180.251 320.501 Q -182.141 322.373 -183.167 324.992 Q -184.193 327.611 -184.193 330.383 Q -184.193 333.137 -183.203 335.693 Q -182.213 338.249 -180.413 340.121 L -180.413 340.409 L -183.455 340.409 Z"
    transform="matrix(1, 0, 0, 1, 500, 73.265732)"/>
  <path
    d="M -171.15 334.415 L -175.866 334.415 L -176.622 336.647 L -179.844 336.647 L -175.272 324.011 L -171.708 324.011 L -167.136 336.647 L -170.394 336.647 Z M -171.942 332.039 L -173.508 327.413 L -175.056 332.039 Z"
    transform="matrix(1, 0, 0, 1, 500, 73.265732)"/>
  <path
    d="M -156.136 328.079 Q -156.136 329.177 -156.64 330.086 Q -157.144 330.995 -158.188 331.553 Q -159.232 332.111 -160.78 332.111 L -162.688 332.111 L -162.688 336.647 L -165.766 336.647 L -165.766 324.011 L -160.78 324.011 Q -159.268 324.011 -158.224 324.533 Q -157.18 325.055 -156.658 325.973 Q -156.136 326.891 -156.136 328.079 Z M -161.014 329.663 Q -160.132 329.663 -159.7 329.249 Q -159.268 328.835 -159.268 328.079 Q -159.268 327.323 -159.7 326.909 Q -160.132 326.495 -161.014 326.495 L -162.688 326.495 L -162.688 329.663 L -161.014 329.663 Z"
    transform="matrix(1, 0, 0, 1, 500, 73.265732)"/>
  <path
    d="M -151.469 324.011 L -151.469 336.647 L -154.547 336.647 L -154.547 324.011 Z"
    transform="matrix(1, 0, 0, 1, 500, 73.265732)"/>
  <path
    d="M -145.922 333.803 L -147.92 338.969 L -149.882 338.969 L -148.838 333.803 Z"
    transform="matrix(1, 0, 0, 1, 500, 73.265732)"/>
  <path
    d="M -140.877 331.607 Q -140.877 330.059 -140.292 328.889 Q -139.707 327.719 -138.699 327.089 Q -137.691 326.459 -136.449 326.459 Q -135.459 326.459 -134.64 326.873 Q -133.821 327.287 -133.353 327.989 L -133.353 323.327 L -130.275 323.327 L -130.275 336.647 L -133.353 336.647 L -133.353 335.207 Q -133.785 335.927 -134.586 336.359 Q -135.387 336.791 -136.449 336.791 Q -137.691 336.791 -138.699 336.152 Q -139.707 335.513 -140.292 334.334 Q -140.877 333.155 -140.877 331.607 Z M -133.353 331.625 Q -133.353 330.473 -133.992 329.807 Q -134.631 329.141 -135.549 329.141 Q -136.467 329.141 -137.106 329.798 Q -137.745 330.455 -137.745 331.607 Q -137.745 332.759 -137.106 333.434 Q -136.467 334.109 -135.549 334.109 Q -134.631 334.109 -133.992 333.443 Q -133.353 332.777 -133.353 331.625 Z"
    transform="matrix(1, 0, 0, 1, 500, 73.265732)"/>
  <path
    d="M -128.673 331.607 Q -128.673 330.059 -128.088 328.889 Q -127.503 327.719 -126.495 327.089 Q -125.487 326.459 -124.245 326.459 Q -123.183 326.459 -122.382 326.891 Q -121.581 327.323 -121.149 328.025 L -121.149 326.603 L -118.071 326.603 L -118.071 336.647 L -121.149 336.647 L -121.149 335.225 Q -121.599 335.927 -122.4 336.359 Q -123.201 336.791 -124.263 336.791 Q -125.487 336.791 -126.495 336.152 Q -127.503 335.513 -128.088 334.334 Q -128.673 333.155 -128.673 331.607 Z M -121.149 331.625 Q -121.149 330.473 -121.788 329.807 Q -122.427 329.141 -123.345 329.141 Q -124.263 329.141 -124.902 329.798 Q -125.541 330.455 -125.541 331.607 Q -125.541 332.759 -124.902 333.434 Q -124.263 334.109 -123.345 334.109 Q -122.427 334.109 -121.788 333.443 Q -121.149 332.777 -121.149 331.625 Z"
    transform="matrix(1, 0, 0, 1, 500, 73.265732)"/>
  <path
    d="M -110.244 334.037 L -110.244 336.647 L -111.81 336.647 Q -113.484 336.647 -114.42 335.828 Q -115.356 335.009 -115.356 333.155 L -115.356 329.159 L -116.58 329.159 L -116.58 326.603 L -115.356 326.603 L -115.356 324.155 L -112.278 324.155 L -112.278 326.603 L -110.262 326.603 L -110.262 329.159 L -112.278 329.159 L -112.278 333.191 Q -112.278 333.641 -112.062 333.839 Q -111.846 334.037 -111.342 334.037 Z"
    transform="matrix(1, 0, 0, 1, 500, 73.265732)"/>
  <path
    d="M -109.157 331.607 Q -109.157 330.059 -108.572 328.889 Q -107.987 327.719 -106.979 327.089 Q -105.971 326.459 -104.729 326.459 Q -103.667 326.459 -102.866 326.891 Q -102.065 327.323 -101.633 328.025 L -101.633 326.603 L -98.555 326.603 L -98.555 336.647 L -101.633 336.647 L -101.633 335.225 Q -102.083 335.927 -102.884 336.359 Q -103.685 336.791 -104.747 336.791 Q -105.971 336.791 -106.979 336.152 Q -107.987 335.513 -108.572 334.334 Q -109.157 333.155 -109.157 331.607 Z M -101.633 331.625 Q -101.633 330.473 -102.272 329.807 Q -102.911 329.141 -103.829 329.141 Q -104.747 329.141 -105.386 329.798 Q -106.025 330.455 -106.025 331.607 Q -106.025 332.759 -105.386 333.434 Q -104.747 334.109 -103.829 334.109 Q -102.911 334.109 -102.272 333.443 Q -101.633 332.777 -101.633 331.625 Z"
    transform="matrix(1, 0, 0, 1, 500, 73.265732)"/>
  <path
    d="M -93.247 328.025 Q -92.815 327.323 -92.005 326.891 Q -91.195 326.459 -90.151 326.459 Q -88.909 326.459 -87.901 327.089 Q -86.893 327.719 -86.308 328.889 Q -85.723 330.059 -85.723 331.607 Q -85.723 333.155 -86.308 334.334 Q -86.893 335.513 -87.901 336.152 Q -88.909 336.791 -90.151 336.791 Q -91.213 336.791 -92.005 336.368 Q -92.797 335.945 -93.247 335.243 L -93.247 336.647 L -96.325 336.647 L -96.325 323.327 L -93.247 323.327 L -93.247 328.025 Z M -88.855 331.607 Q -88.855 330.455 -89.494 329.798 Q -90.133 329.141 -91.069 329.141 Q -91.987 329.141 -92.626 329.807 Q -93.265 330.473 -93.265 331.625 Q -93.265 332.777 -92.626 333.443 Q -91.987 334.109 -91.069 334.109 Q -90.151 334.109 -89.503 333.434 Q -88.855 332.759 -88.855 331.607 Z"
    transform="matrix(1, 0, 0, 1, 500, 73.265732)"/>
  <path
    d="M -84.734 331.607 Q -84.734 330.059 -84.149 328.889 Q -83.564 327.719 -82.556 327.089 Q -81.548 326.459 -80.306 326.459 Q -79.244 326.459 -78.443 326.891 Q -77.642 327.323 -77.21 328.025 L -77.21 326.603 L -74.132 326.603 L -74.132 336.647 L -77.21 336.647 L -77.21 335.225 Q -77.66 335.927 -78.461 336.359 Q -79.262 336.791 -80.324 336.791 Q -81.548 336.791 -82.556 336.152 Q -83.564 335.513 -84.149 334.334 Q -84.734 333.155 -84.734 331.607 Z M -77.21 331.625 Q -77.21 330.473 -77.849 329.807 Q -78.488 329.141 -79.406 329.141 Q -80.324 329.141 -80.963 329.798 Q -81.602 330.455 -81.602 331.607 Q -81.602 332.759 -80.963 333.434 Q -80.324 334.109 -79.406 334.109 Q -78.488 334.109 -77.849 333.443 Q -77.21 332.777 -77.21 331.625 Z"
    transform="matrix(1, 0, 0, 1, 500, 73.265732)"/>
  <path
    d="M -67.817 336.791 Q -69.131 336.791 -70.157 336.341 Q -71.183 335.891 -71.777 335.108 Q -72.371 334.325 -72.443 333.353 L -69.401 333.353 Q -69.347 333.875 -68.915 334.199 Q -68.483 334.523 -67.853 334.523 Q -67.277 334.523 -66.962 334.298 Q -66.647 334.073 -66.647 333.713 Q -66.647 333.281 -67.097 333.074 Q -67.547 332.867 -68.555 332.615 Q -69.635 332.363 -70.355 332.084 Q -71.075 331.805 -71.597 331.202 Q -72.119 330.599 -72.119 329.573 Q -72.119 328.709 -71.642 327.998 Q -71.165 327.287 -70.238 326.873 Q -69.311 326.459 -68.033 326.459 Q -66.143 326.459 -65.054 327.395 Q -63.965 328.331 -63.803 329.879 L -66.647 329.879 Q -66.719 329.357 -67.106 329.051 Q -67.493 328.745 -68.123 328.745 Q -68.663 328.745 -68.951 328.952 Q -69.239 329.159 -69.239 329.519 Q -69.239 329.951 -68.78 330.167 Q -68.321 330.383 -67.349 330.599 Q -66.233 330.887 -65.531 331.166 Q -64.829 331.445 -64.298 332.066 Q -63.767 332.687 -63.749 333.731 Q -63.749 334.613 -64.244 335.306 Q -64.739 335.999 -65.666 336.395 Q -66.593 336.791 -67.817 336.791 Z"
    transform="matrix(1, 0, 0, 1, 500, 73.265732)"/>
  <path
    d="M -52.403 331.463 Q -52.403 331.895 -52.457 332.363 L -59.423 332.363 Q -59.351 333.299 -58.82 333.794 Q -58.289 334.289 -57.515 334.289 Q -56.363 334.289 -55.913 333.317 L -52.637 333.317 Q -52.889 334.307 -53.546 335.099 Q -54.203 335.891 -55.193 336.341 Q -56.183 336.791 -57.407 336.791 Q -58.883 336.791 -60.035 336.161 Q -61.187 335.531 -61.835 334.361 Q -62.483 333.191 -62.483 331.625 Q -62.483 330.059 -61.844 328.889 Q -61.205 327.719 -60.053 327.089 Q -58.901 326.459 -57.407 326.459 Q -55.949 326.459 -54.815 327.071 Q -53.681 327.683 -53.042 328.817 Q -52.403 329.951 -52.403 331.463 Z M -55.553 330.653 Q -55.553 329.861 -56.093 329.393 Q -56.633 328.925 -57.443 328.925 Q -58.217 328.925 -58.748 329.375 Q -59.279 329.825 -59.405 330.653 Z"
    transform="matrix(1, 0, 0, 1, 500, 73.265732)"/>
  <path
    d="M -47.48 333.803 L -49.478 338.969 L -51.44 338.969 L -50.396 333.803 Z"
    transform="matrix(1, 0, 0, 1, 500, 73.265732)"/>
  <path
    d="M -32.34 331.463 Q -32.34 331.895 -32.394 332.363 L -39.36 332.363 Q -39.288 333.299 -38.757 333.794 Q -38.226 334.289 -37.452 334.289 Q -36.3 334.289 -35.85 333.317 L -32.574 333.317 Q -32.826 334.307 -33.483 335.099 Q -34.14 335.891 -35.13 336.341 Q -36.12 336.791 -37.344 336.791 Q -38.82 336.791 -39.972 336.161 Q -41.124 335.531 -41.772 334.361 Q -42.42 333.191 -42.42 331.625 Q -42.42 330.059 -41.781 328.889 Q -41.142 327.719 -39.99 327.089 Q -38.838 326.459 -37.344 326.459 Q -35.886 326.459 -34.752 327.071 Q -33.618 327.683 -32.979 328.817 Q -32.34 329.951 -32.34 331.463 Z M -35.49 330.653 Q -35.49 329.861 -36.03 329.393 Q -36.57 328.925 -37.38 328.925 Q -38.154 328.925 -38.685 329.375 Q -39.216 329.825 -39.342 330.653 Z"
    transform="matrix(1, 0, 0, 1, 500, 73.265732)"/>
  <path
    d="M -25.131 334.037 L -25.131 336.647 L -26.697 336.647 Q -28.371 336.647 -29.307 335.828 Q -30.243 335.009 -30.243 333.155 L -30.243 329.159 L -31.467 329.159 L -31.467 326.603 L -30.243 326.603 L -30.243 324.155 L -27.165 324.155 L -27.165 326.603 L -25.149 326.603 L -25.149 329.159 L -27.165 329.159 L -27.165 333.191 Q -27.165 333.641 -26.949 333.839 Q -26.733 334.037 -26.229 334.037 Z"
    transform="matrix(1, 0, 0, 1, 500, 73.265732)"/>
  <path
    d="M -24.044 331.625 Q -24.044 330.059 -23.405 328.889 Q -22.766 327.719 -21.623 327.089 Q -20.48 326.459 -19.004 326.459 Q -17.114 326.459 -15.845 327.449 Q -14.576 328.439 -14.18 330.239 L -17.456 330.239 Q -17.87 329.087 -19.058 329.087 Q -19.904 329.087 -20.408 329.744 Q -20.912 330.401 -20.912 331.625 Q -20.912 332.849 -20.408 333.506 Q -19.904 334.163 -19.058 334.163 Q -17.87 334.163 -17.456 333.011 L -14.18 333.011 Q -14.576 334.775 -15.854 335.783 Q -17.132 336.791 -19.004 336.791 Q -20.48 336.791 -21.623 336.161 Q -22.766 335.531 -23.405 334.361 Q -24.044 333.191 -24.044 331.625 Z"
    transform="matrix(1, 0, 0, 1, 500, 73.265732)"/>
  <path
    d="M -11.116 336.791 Q -11.926 336.791 -12.439 336.314 Q -12.952 335.837 -12.952 335.135 Q -12.952 334.415 -12.439 333.929 Q -11.926 333.443 -11.116 333.443 Q -10.324 333.443 -9.811 333.929 Q -9.298 334.415 -9.298 335.135 Q -9.298 335.837 -9.811 336.314 Q -10.324 336.791 -11.116 336.791 Z"
    transform="matrix(1, 0, 0, 1, 500, 73.265732)"/>
  <path
    d="M -8.306 340.409 L -8.306 340.121 Q -6.506 338.249 -5.516 335.693 Q -4.526 333.137 -4.526 330.383 Q -4.526 327.611 -5.552 324.992 Q -6.578 322.373 -8.468 320.501 L -8.468 320.213 L -5.444 320.213 Q -3.59 321.905 -2.582 324.596 Q -1.574 327.287 -1.574 330.383 Q -1.574 333.443 -2.546 336.089 Q -3.518 338.735 -5.264 340.409 Z"
    transform="matrix(1, 0, 0, 1, 500, 73.265732)"/>
  <path
    d="M 213.482 254.039 L 218.322 254.039 L 218.322 256.399 L 213.482 256.399 L 213.482 261.899 L 210.182 261.899 L 210.182 248.039 L 219.282 248.039 L 218.962 250.379 L 213.482 250.379 Z"/>
  <path
    d="M 228.007 250.919 Q 230.427 250.919 231.797 252.449 Q 233.167 253.979 233.167 256.559 Q 233.167 259.239 231.807 260.739 Q 230.447 262.239 228.007 262.239 Q 225.567 262.239 224.207 260.749 Q 222.847 259.259 222.847 256.579 Q 222.847 254.879 223.457 253.609 Q 224.067 252.339 225.237 251.629 Q 226.407 250.919 228.007 250.919 Z M 228.007 253.259 Q 227.027 253.259 226.567 254.049 Q 226.107 254.839 226.107 256.579 Q 226.107 258.339 226.567 259.129 Q 227.027 259.919 228.007 259.919 Q 228.987 259.919 229.447 259.119 Q 229.907 258.319 229.907 256.559 Q 229.907 254.839 229.447 254.049 Q 228.987 253.259 228.007 253.259 Z"/>
  <path
    d="M 241.652 259.979 Q 242.472 259.979 242.942 259.729 Q 243.412 259.479 243.412 258.979 Q 243.412 258.619 243.222 258.399 Q 243.032 258.179 242.512 257.969 Q 241.992 257.759 240.892 257.459 Q 239.292 257.039 238.452 256.289 Q 237.612 255.539 237.612 254.219 Q 237.612 252.759 238.822 251.839 Q 240.032 250.919 242.212 250.919 Q 244.732 250.919 246.512 252.219 L 245.252 254.079 Q 243.792 253.179 242.312 253.179 Q 241.532 253.179 241.162 253.379 Q 240.792 253.579 240.792 253.999 Q 240.792 254.279 240.982 254.469 Q 241.172 254.659 241.702 254.859 Q 242.232 255.059 243.292 255.359 Q 244.432 255.679 245.162 256.059 Q 245.892 256.439 246.292 257.079 Q 246.692 257.719 246.692 258.719 Q 246.692 259.839 246.012 260.639 Q 245.332 261.439 244.192 261.839 Q 243.052 262.239 241.672 262.239 Q 240.192 262.239 238.992 261.819 Q 237.792 261.399 236.952 260.639 L 238.532 258.859 Q 239.972 259.979 241.652 259.979 Z"/>
  <path
    d="M 257.032 259.739 Q 257.632 259.739 258.192 259.509 Q 258.752 259.279 259.392 258.839 L 260.792 260.839 Q 260.032 261.479 259.032 261.859 Q 258.032 262.239 256.852 262.239 Q 255.152 262.239 253.922 261.539 Q 252.692 260.839 252.032 259.579 Q 251.372 258.319 251.372 256.659 Q 251.372 254.999 252.052 253.699 Q 252.732 252.399 253.982 251.659 Q 255.232 250.919 256.912 250.919 Q 258.092 250.919 259.032 251.249 Q 259.972 251.579 260.792 252.259 L 259.432 254.159 Q 258.272 253.359 257.052 253.359 Q 254.672 253.359 254.672 256.659 Q 254.672 258.319 255.292 259.029 Q 255.912 259.739 257.032 259.739 Z"/>
  <path
    d="M 269.957 245.719 Q 270.777 245.719 271.297 246.229 Q 271.817 246.739 271.817 247.499 Q 271.817 248.279 271.297 248.779 Q 270.777 249.279 269.957 249.279 Q 269.137 249.279 268.607 248.769 Q 268.077 248.259 268.077 247.499 Q 268.077 246.739 268.607 246.229 Q 269.137 245.719 269.957 245.719 Z M 271.857 259.739 L 274.577 259.739 L 274.577 261.899 L 265.697 261.899 L 265.697 259.739 L 268.697 259.739 L 268.697 253.439 L 265.797 253.439 L 265.797 251.279 L 271.857 251.279 Z"/>
  <path
    d="M 288.302 258.839 Q 288.302 259.419 288.462 259.699 Q 288.622 259.979 289.002 260.119 L 288.342 262.199 Q 287.382 262.099 286.742 261.769 Q 286.102 261.439 285.742 260.799 Q 285.142 261.499 284.222 261.869 Q 283.302 262.239 282.262 262.239 Q 280.622 262.239 279.642 261.309 Q 278.662 260.379 278.662 258.899 Q 278.662 257.179 280.022 256.229 Q 281.382 255.279 283.842 255.279 L 285.262 255.279 L 285.262 254.899 Q 285.262 253.259 283.162 253.259 Q 282.622 253.259 281.812 253.409 Q 281.002 253.559 280.242 253.819 L 279.522 251.719 Q 280.542 251.339 281.652 251.129 Q 282.762 250.919 283.662 250.919 Q 288.302 250.919 288.302 254.679 L 288.302 258.839 Z M 283.342 259.979 Q 283.882 259.979 284.432 259.669 Q 284.982 259.359 285.262 258.819 L 285.262 257.079 L 284.482 257.079 Q 281.922 257.079 281.922 258.679 Q 281.922 259.299 282.292 259.639 Q 282.662 259.979 283.342 259.979 Z"/>
</svg>
